<svg width="48" height="48" viewBox="0 0 48 48" fill="none" xmlns="http://www.w3.org/2000/svg">
<path d="M24 45C12.4161 45 3 35.5839 3 24C3 12.4161 12.4161 3 24 3C35.5839 3 45 12.4161 45 24C45 35.5839 35.5839 45 24 45ZM24 5C13.5239 5 5 13.5239 5 24C5 34.4761 13.5239 43 24 43C34.4761 43 43 34.4761 43 24C43 13.5239 34.4761 5 24 5Z" fill="#0F58E6" stroke="#0F58E6"/>
<path d="M32 25.5H16C15.18 25.5 14.5 24.82 14.5 24C14.5 23.18 15.18 22.5 16 22.5H32C32.82 22.5 33.5 23.18 33.5 24C33.5 24.82 32.82 25.5 32 25.5Z" fill="#0F58E6"/>
<path d="M24 33.5C23.18 33.5 22.5 32.82 22.5 32V16C22.5 15.18 23.18 14.5 24 14.5C24.82 14.5 25.5 15.18 25.5 16V32C25.5 32.82 24.82 33.5 24 33.5Z" fill="#0F58E6"/>
</svg>
