<svg width="28" height="34" viewBox="0 0 28 34" fill="none" xmlns="http://www.w3.org/2000/svg">
<path d="M22.5709 18.13C22.5357 13.9285 26.0095 11.8864 26.1621 11.7926C24.1904 8.929 21.1391 8.52998 20.0711 8.49477C17.5127 8.22484 15.0247 10.0322 13.722 10.0322C12.3958 10.0322 10.3772 8.52998 8.21783 8.56518C5.43642 8.61213 2.81931 10.2199 1.39926 12.7314C-1.54646 17.8366 0.648163 25.3476 3.47652 29.4786C4.89657 31.4972 6.5396 33.7622 8.71074 33.6801C10.8232 33.5979 11.6213 32.3304 14.1679 32.3304C16.7029 32.3304 17.4423 33.6801 19.6486 33.6331C21.9254 33.5979 23.3454 31.6028 24.7185 29.5608C26.3498 27.2488 27.007 24.9603 27.0305 24.8429C26.9718 24.8194 22.6178 23.1529 22.5709 18.13" fill="#171515"/>
<path d="M18.4049 5.78368C19.5433 4.36363 20.3179 2.4272 20.1066 0.455566C18.4636 0.525982 16.3981 1.59395 15.2127 2.99053C14.1682 4.2228 13.2294 6.22964 13.4641 8.11912C15.3184 8.25996 17.2196 7.18025 18.4049 5.78368" fill="#171515"/>
</svg>
