<svg width="16" height="16" viewBox="0 0 16 16" fill="none" xmlns="http://www.w3.org/2000/svg">
<mask id="path-1-inside-1_901_1042" fill="white">
<path d="M8.00001 11.2C7.53335 11.2 7.06668 11.02 6.71335 10.6667L2.36668 6.31999C2.17335 6.12666 2.17335 5.80666 2.36668 5.61332C2.56001 5.41999 2.88001 5.41999 3.07335 5.61332L7.42001 9.95999C7.74001 10.28 8.26001 10.28 8.58001 9.95999L12.9267 5.61332C13.12 5.41999 13.44 5.41999 13.6333 5.61332C13.8267 5.80666 13.8267 6.12666 13.6333 6.31999L9.28668 10.6667C8.93335 11.02 8.46668 11.2 8.00001 11.2Z"/>
</mask>
<path d="M8.00001 11.2C7.53335 11.2 7.06668 11.02 6.71335 10.6667L2.36668 6.31999C2.17335 6.12666 2.17335 5.80666 2.36668 5.61332C2.56001 5.41999 2.88001 5.41999 3.07335 5.61332L7.42001 9.95999C7.74001 10.28 8.26001 10.28 8.58001 9.95999L12.9267 5.61332C13.12 5.41999 13.44 5.41999 13.6333 5.61332C13.8267 5.80666 13.8267 6.12666 13.6333 6.31999L9.28668 10.6667C8.93335 11.02 8.46668 11.2 8.00001 11.2Z" fill="#999999"/>
<path d="M6.71335 10.6667L6.00624 11.3738L6.71335 10.6667ZM2.36668 6.31999L3.07379 5.61288V5.61288L2.36668 6.31999ZM3.07335 5.61332L2.36624 6.32043L3.07335 5.61332ZM7.42001 9.95999L8.12712 9.25288L7.42001 9.95999ZM8.58001 9.95999L9.28712 10.6671L8.58001 9.95999ZM12.9267 5.61332L12.2196 4.90622V4.90622L12.9267 5.61332ZM13.6333 6.31999L12.9262 5.61288V5.61288L13.6333 6.31999ZM9.28668 10.6667L9.99379 11.3738L9.28668 10.6667ZM8.00001 10.2C7.78939 10.2 7.57986 10.119 7.42045 9.95955L6.00624 11.3738C6.5535 11.921 7.2773 12.2 8.00001 12.2V10.2ZM7.42045 9.95955L3.07379 5.61288L1.65957 7.0271L6.00624 11.3738L7.42045 9.95955ZM3.07379 5.61288C3.27098 5.81007 3.27098 6.12324 3.07379 6.32043L1.65957 4.90622C1.07572 5.49007 1.07572 6.44324 1.65957 7.0271L3.07379 5.61288ZM3.07379 6.32043C2.8766 6.51762 2.56343 6.51762 2.36624 6.32043L3.78045 4.90622C3.1966 4.32236 2.24343 4.32236 1.65957 4.90622L3.07379 6.32043ZM2.36624 6.32043L6.71291 10.6671L8.12712 9.25288L3.78045 4.90622L2.36624 6.32043ZM6.71291 10.6671C7.42343 11.3776 8.5766 11.3776 9.28712 10.6671L7.87291 9.25288C7.94343 9.18236 8.0566 9.18236 8.12712 9.25288L6.71291 10.6671ZM9.28712 10.6671L13.6338 6.32043L12.2196 4.90622L7.87291 9.25288L9.28712 10.6671ZM13.6338 6.32043C13.4366 6.51762 13.1234 6.51762 12.9262 6.32043L14.3405 4.90622C13.7566 4.32236 12.8034 4.32236 12.2196 4.90622L13.6338 6.32043ZM12.9262 6.32043C12.729 6.12324 12.729 5.81007 12.9262 5.61288L14.3405 7.0271C14.9243 6.44324 14.9243 5.49007 14.3405 4.90622L12.9262 6.32043ZM12.9262 5.61288L8.57957 9.95955L9.99379 11.3738L14.3405 7.0271L12.9262 5.61288ZM8.57957 9.95955C8.42016 10.119 8.21064 10.2 8.00001 10.2V12.2C8.72272 12.2 9.44653 11.921 9.99379 11.3738L8.57957 9.95955Z" fill="#999999" mask="url(#path-1-inside-1_901_1042)"/>
</svg>
