<svg width="24" height="24" viewBox="0 0 24 24" fill="none" xmlns="http://www.w3.org/2000/svg">
<path d="M15.61 13.5731L15.61 13.573L15.6065 13.5765L9.09386 20.0892C9.02761 20.1489 8.9587 20.17 8.9101 20.17C8.84555 20.17 8.78494 20.1478 8.73365 20.0965C8.63891 20.0017 8.63891 19.8383 8.73365 19.7436L15.2537 13.2236C15.9289 12.5483 15.9289 11.4517 15.2537 10.7765L8.73365 4.25647C8.63891 4.16173 8.63891 3.99831 8.73365 3.90357C8.82839 3.80884 8.99181 3.80884 9.08654 3.90357L15.6065 10.4236C16.0236 10.8406 16.2601 11.4037 16.2601 12C16.2601 12.6005 16.0308 13.1604 15.61 13.5731Z" fill="#999999" stroke="#999999"/>
</svg>
