<svg width="24" height="24" viewBox="0 0 24 24" fill="none" xmlns="http://www.w3.org/2000/svg">
<path d="M11.5839 2.27194L11.583 2.27203C10.5294 2.37153 9.5724 2.95394 8.88584 3.75262C8.19835 4.55238 7.75 5.60506 7.75 6.69981V7.66981C7.75 7.80367 7.63386 7.91981 7.5 7.91981C7.36614 7.91981 7.25 7.80367 7.25 7.66981V6.68981C7.25 4.24094 9.24023 1.9916 11.5374 1.76756C12.9006 1.64059 14.1993 2.0668 15.1918 2.97811L15.1938 2.97993C16.1795 3.87513 16.75 5.16071 16.75 6.49981V7.87981C16.75 8.01367 16.6339 8.12981 16.5 8.12981C16.3661 8.12981 16.25 8.01367 16.25 7.87981V6.49981C16.25 5.30898 15.7406 4.15476 14.8566 3.35006C13.9589 2.53208 12.7987 2.15946 11.5839 2.27194Z" fill="#171515" stroke="#171515"/>
<path d="M15 22.75H9C4.38 22.75 3.52 20.6 3.3 18.51L2.55 12.52C2.44 11.44 2.4 9.89 3.45 8.73C4.35 7.73 5.84 7.25 8 7.25H16C18.17 7.25 19.66 7.74 20.55 8.73C21.59 9.89 21.56 11.44 21.45 12.5L20.7 18.51C20.48 20.6 19.62 22.75 15 22.75ZM8 8.75C6.31 8.75 5.15 9.08 4.56 9.74C4.07 10.28 3.91 11.11 4.04 12.35L4.79 18.34C4.96 19.94 5.4 21.26 9 21.26H15C18.6 21.26 19.04 19.95 19.21 18.36L19.96 12.35C20.09 11.13 19.93 10.3 19.44 9.75C18.85 9.08 17.69 8.75 16 8.75H8Z" fill="#171515"/>
<path d="M15.42 13.1499C14.86 13.1499 14.41 12.6999 14.41 12.1499C14.41 11.5999 14.86 11.1499 15.41 11.1499C15.96 11.1499 16.41 11.5999 16.41 12.1499C16.41 12.6999 15.97 13.1499 15.42 13.1499Z" fill="#171515"/>
<path d="M8.42 13.1499C7.86 13.1499 7.41 12.6999 7.41 12.1499C7.41 11.5999 7.86 11.1499 8.41 11.1499C8.96 11.1499 9.41 11.5999 9.41 12.1499C9.41 12.6999 8.97 13.1499 8.42 13.1499Z" fill="#171515"/>
</svg>
