<svg width="24" height="24" viewBox="0 0 24 24" fill="none" xmlns="http://www.w3.org/2000/svg">
<path d="M11.5839 2.27194L11.583 2.27203C10.5294 2.37153 9.5724 2.95394 8.88584 3.75262C8.19835 4.55238 7.75 5.60506 7.75 6.69981V7.66981C7.75 7.80367 7.63386 7.91981 7.5 7.91981C7.36614 7.91981 7.25 7.80367 7.25 7.66981V6.68981C7.25 4.24094 9.24023 1.9916 11.5374 1.76756C12.9006 1.64059 14.1993 2.0668 15.1918 2.97811L15.1938 2.97993C16.1795 3.87513 16.75 5.16071 16.75 6.49981V7.87981C16.75 8.01367 16.6339 8.12981 16.5 8.12981C16.3661 8.12981 16.25 8.01367 16.25 7.87981V6.49981C16.25 5.30898 15.7406 4.15476 14.8566 3.35006C13.9589 2.53208 12.7987 2.15946 11.5839 2.27194Z" fill="#171515" stroke="#171515"/>
<path d="M14.9998 22.75H8.99982C4.37982 22.75 3.51982 20.6 3.29982 18.51L2.54982 12.52C2.43982 11.44 2.39982 9.89 3.44982 8.73C4.34982 7.73 5.83982 7.25 7.99982 7.25H15.9998C18.1698 7.25 19.6598 7.74 20.5498 8.73C21.5898 9.89 21.5598 11.44 21.4498 12.5L20.6998 18.51C20.4798 20.6 19.6198 22.75 14.9998 22.75ZM7.99982 8.75C6.30982 8.75 5.14982 9.08 4.55982 9.74C4.06982 10.28 3.90982 11.11 4.03982 12.35L4.78982 18.34C4.95982 19.94 5.39982 21.26 8.99982 21.26H14.9998C18.5998 21.26 19.0398 19.95 19.2098 18.36L19.9598 12.35C20.0898 11.13 19.9298 10.3 19.4398 9.75C18.8498 9.08 17.6898 8.75 15.9998 8.75H7.99982Z" fill="#171515"/>
<path d="M15.4202 13.1499C14.8602 13.1499 14.4102 12.6999 14.4102 12.1499C14.4102 11.5999 14.8602 11.1499 15.4102 11.1499C15.9602 11.1499 16.4102 11.5999 16.4102 12.1499C16.4102 12.6999 15.9702 13.1499 15.4202 13.1499Z" fill="#171515"/>
<path d="M8.42016 13.1499C7.86016 13.1499 7.41016 12.6999 7.41016 12.1499C7.41016 11.5999 7.86016 11.1499 8.41016 11.1499C8.96016 11.1499 9.41016 11.5999 9.41016 12.1499C9.41016 12.6999 8.97016 13.1499 8.42016 13.1499Z" fill="#171515"/>
</svg>
