<svg width="101" height="100" viewBox="0 0 101 100" fill="none" xmlns="http://www.w3.org/2000/svg">
<path d="M40.9666 89.1002L40.9662 89.0999L19.2589 72.8507C15.3423 69.9031 13 65.2175 13 60.3335V7.8335H87.6665V60.3335C87.6665 65.2175 85.3242 69.9031 81.4076 72.8507L59.7003 89.0999L59.7 89.1002C56.9559 91.1583 53.6451 92.2085 50.3333 92.2085C47.0214 92.2085 43.7107 91.1583 40.9666 89.1002ZM18.75 13.0419H18.25V13.5419V60.2919C18.25 63.5353 19.826 66.639 22.405 68.6061L22.4086 68.6088L44.1166 84.8585C47.7943 87.6169 52.9138 87.6169 56.5916 84.8585L78.2996 68.6088L78.3032 68.6061C80.8823 66.639 82.4583 63.5353 82.4583 60.2919V13.5419V13.0419H81.9583H18.75Z" fill="#999999" stroke="#999999"/>
<path d="M92.0003 13.0415H8.66699C7.2348 13.0415 6.04199 11.8487 6.04199 10.4165C6.04199 8.98431 7.2348 7.7915 8.66699 7.7915H92.0003C93.4325 7.7915 94.6253 8.98431 94.6253 10.4165C94.6253 11.8487 93.4325 13.0415 92.0003 13.0415Z" fill="#999999" stroke="#999999"/>
<path d="M67.0003 36.4585H33.667C31.9587 36.4585 30.542 35.0418 30.542 33.3335C30.542 31.6252 31.9587 30.2085 33.667 30.2085H67.0003C68.7087 30.2085 70.1253 31.6252 70.1253 33.3335C70.1253 35.0418 68.7087 36.4585 67.0003 36.4585Z" fill="#999999"/>
<path d="M67.0003 57.2915H33.667C31.9587 57.2915 30.542 55.8748 30.542 54.1665C30.542 52.4582 31.9587 51.0415 33.667 51.0415H67.0003C68.7087 51.0415 70.1253 52.4582 70.1253 54.1665C70.1253 55.8748 68.7087 57.2915 67.0003 57.2915Z" fill="#999999"/>
</svg>
