<svg width="24" height="24" viewBox="0 0 24 24" fill="none" xmlns="http://www.w3.org/2000/svg">
<path fill-rule="evenodd" clip-rule="evenodd" d="M7 15.75C6.66848 15.75 6.35054 15.8817 6.11612 16.1161C5.8817 16.3505 5.75 16.6685 5.75 17C5.75 17.3315 5.8817 17.6495 6.11612 17.8839C6.35054 18.1183 6.66848 18.25 7 18.25C7.33152 18.25 7.64946 18.1183 7.88388 17.8839C8.1183 17.6495 8.25 17.3315 8.25 17C8.25 16.6685 8.1183 16.3505 7.88388 16.1161C7.64946 15.8817 7.33152 15.75 7 15.75ZM5.05546 15.0555C5.57118 14.5397 6.27065 14.25 7 14.25C7.72935 14.25 8.42882 14.5397 8.94454 15.0555C9.46027 15.5712 9.75 16.2707 9.75 17C9.75 17.7293 9.46027 18.4288 8.94454 18.9445C8.42882 19.4603 7.72935 19.75 7 19.75C6.27065 19.75 5.57118 19.4603 5.05546 18.9445C4.53973 18.4288 4.25 17.7293 4.25 17C4.25 16.2707 4.53973 15.5712 5.05546 15.0555ZM17 15.75C16.6685 15.75 16.3505 15.8817 16.1161 16.1161C15.8817 16.3505 15.75 16.6685 15.75 17C15.75 17.3315 15.8817 17.6495 16.1161 17.8839C16.3505 18.1183 16.6685 18.25 17 18.25C17.3315 18.25 17.6495 18.1183 17.8839 17.8839C18.1183 17.6495 18.25 17.3315 18.25 17C18.25 16.6685 18.1183 16.3505 17.8839 16.1161C17.6495 15.8817 17.3315 15.75 17 15.75ZM15.0555 15.0555C15.5712 14.5397 16.2707 14.25 17 14.25C17.7293 14.25 18.4288 14.5397 18.9445 15.0555C19.4603 15.5712 19.75 16.2707 19.75 17C19.75 17.7293 19.4603 18.4288 18.9445 18.9445C18.4288 19.4603 17.7293 19.75 17 19.75C16.2707 19.75 15.5712 19.4603 15.0555 18.9445C14.5397 18.4288 14.25 17.7293 14.25 17C14.25 16.2707 14.5397 15.5712 15.0555 15.0555Z" fill="#171515"/>
<path fill-rule="evenodd" clip-rule="evenodd" d="M2.76256 4.76256C3.09075 4.43437 3.53587 4.25 4 4.25H12C12.4641 4.25 12.9092 4.43438 13.2374 4.76256C13.5656 5.09075 13.75 5.53587 13.75 6V6.26794C13.8323 6.25606 13.9158 6.25 14 6.25H16.586C17.0501 6.2501 17.4952 6.43451 17.8233 6.76267M17.8233 6.76267L21.2373 10.1766C21.2373 10.1766 21.2372 10.1766 21.2373 10.1766C21.5654 10.5047 21.7499 10.9498 21.75 11.4138V16C21.75 16.4641 21.5656 16.9092 21.2374 17.2374C20.9092 17.5656 20.4641 17.75 20 17.75H19.6458C19.5189 18.1975 19.2793 18.6098 18.9445 18.9445C18.4288 19.4603 17.7293 19.75 17 19.75C16.2707 19.75 15.5712 19.4603 15.0555 18.9445C14.7207 18.6098 14.4811 18.1975 14.3542 17.75H14C13.64 17.75 13.2914 17.6391 13 17.4361C12.7086 17.6391 12.36 17.75 12 17.75H9.64576C9.51887 18.1975 9.27933 18.6098 8.94454 18.9445C8.42882 19.4603 7.72935 19.75 7 19.75C6.27065 19.75 5.57118 19.4603 5.05546 18.9445C4.72067 18.6098 4.48113 18.1975 4.35424 17.75H4C3.53587 17.75 3.09075 17.5656 2.76256 17.2374C2.43437 16.9092 2.25 16.4641 2.25 16V6C2.25 5.53587 2.43437 5.09075 2.76256 4.76256M5.75 17C5.75 17.3315 5.8817 17.6495 6.11612 17.8839C6.35054 18.1183 6.66848 18.25 7 18.25C7.33152 18.25 7.64946 18.1183 7.88388 17.8839C8.1183 17.6495 8.25 17.3315 8.25 17C8.25 16.6685 8.1183 16.3505 7.88388 16.1161C7.64946 15.8817 7.33152 15.75 7 15.75C6.66848 15.75 6.35054 15.8817 6.11612 16.1161C5.8817 16.3505 5.75 16.6685 5.75 17ZM9.64576 16.25H12C12.0663 16.25 12.1299 16.2237 12.1768 16.1768C12.2237 16.1299 12.25 16.0663 12.25 16V6C12.25 5.9337 12.2237 5.87011 12.1768 5.82322C12.1299 5.77634 12.0663 5.75 12 5.75H4C3.9337 5.75 3.87011 5.77634 3.82322 5.82322C3.77634 5.87011 3.75 5.9337 3.75 6V16C3.75 16.0663 3.77634 16.1299 3.82322 16.1768C3.87011 16.2237 3.93369 16.25 4 16.25H4.35424C4.48113 15.8025 4.72067 15.3902 5.05546 15.0555C5.57118 14.5397 6.27065 14.25 7 14.25C7.72935 14.25 8.42882 14.5397 8.94454 15.0555C9.27933 15.3902 9.51887 15.8025 9.64576 16.25ZM13.75 16C13.75 16.0663 13.7763 16.1299 13.8232 16.1768C13.8701 16.2237 13.9337 16.25 14 16.25H14.3542C14.4811 15.8025 14.7207 15.3902 15.0555 15.0555C15.5712 14.5397 16.2707 14.25 17 14.25C17.7293 14.25 18.4288 14.5397 18.9445 15.0555C19.2793 15.3902 19.5189 15.8025 19.6458 16.25H20C20.0663 16.25 20.1299 16.2237 20.1768 16.1768C20.2237 16.1299 20.25 16.0663 20.25 16V11.4142C20.25 11.4141 20.25 11.4142 20.25 11.4142C20.2499 11.3479 20.2236 11.2842 20.1768 11.2374L16.7627 7.82333C16.7158 7.77648 16.6522 7.75006 16.586 7.75C16.5859 7.75 16.5861 7.75 16.586 7.75H14C13.9337 7.75 13.8701 7.77634 13.8232 7.82322C13.7763 7.87011 13.75 7.9337 13.75 8V16ZM15.75 17C15.75 17.3315 15.8817 17.6495 16.1161 17.8839C16.3505 18.1183 16.6685 18.25 17 18.25C17.3315 18.25 17.6495 18.1183 17.8839 17.8839C18.1183 17.6495 18.25 17.3315 18.25 17C18.25 16.6685 18.1183 16.3505 17.8839 16.1161C17.6495 15.8817 17.3315 15.75 17 15.75C16.6685 15.75 16.3505 15.8817 16.1161 16.1161C15.8817 16.3505 15.75 16.6685 15.75 17Z" fill="#171515"/>
</svg>
