<svg width="16" height="16" viewBox="0 0 16 16" fill="none" xmlns="http://www.w3.org/2000/svg">
<path d="M7.99967 14.6666C4.32248 14.6666 1.33301 11.6771 1.33301 7.99992M7.99967 14.6666C11.6769 14.6666 14.6663 11.6771 14.6663 7.99992M7.99967 14.6666C11.6758 14.6666 14.6663 11.6761 14.6663 7.99992M7.99967 14.6666C4.32353 14.6666 1.33301 11.6761 1.33301 7.99992M1.33301 7.99992C1.33301 4.32273 4.32248 1.33325 7.99967 1.33325M1.33301 7.99992C1.33301 4.32378 4.32353 1.33325 7.99967 1.33325M14.6663 7.99992C14.6663 4.32273 11.6769 1.33325 7.99967 1.33325M14.6663 7.99992C14.6663 4.32378 11.6758 1.33325 7.99967 1.33325" fill="#292D32" stroke="#171515"/>
<path d="M5.33349 14C5.33349 13.9999 5.33349 13.9999 5.33349 13.9998L5.98293 13.984L5.88316 13.6434C5.92009 13.7626 5.95822 13.8815 5.99756 14H5.33349ZM5.84202 2.49707L5.98293 2.01602L5.33349 2.00018C5.33349 2.00012 5.33349 2.00006 5.33349 2H5.99854C5.99881 2.00009 5.99917 2.00022 5.99963 2.00042L5.99906 2.00214C5.9444 2.16643 5.89205 2.33143 5.84202 2.49707Z" fill="#292D32" stroke="#171515"/>
<path d="M10.1794 2.56363C10.957 5.17006 11.1595 7.93345 10.7869 10.6193C11.157 7.93318 10.9545 5.17183 10.1794 2.56363Z" fill="#292D32" stroke="#171515"/>
<path d="M2.00214 10.0011C2.156 10.0523 2.31048 10.1015 2.46554 10.1486L2.01644 10.0162L2.00016 10.6675L2 10.6667V10.0016C2.00009 10.0014 2.00022 10.001 2.00042 10.0005L2.00214 10.0011ZM3.11408 10.333C4.71172 10.7562 6.36206 10.9675 8.01229 10.9667C8.00819 10.9667 8.0041 10.9667 8 10.9667C6.35026 10.9667 4.70698 10.7569 3.11408 10.333ZM13.9906 10.0168L13.5211 10.1547C13.6829 10.1057 13.8441 10.0545 14.0045 10.0011L14.0045 10.0012L14.0067 10.0004V10.6667C14.0066 10.6667 14.0065 10.6667 14.0065 10.6667L13.9906 10.0168Z" fill="#292D32" stroke="#171515"/>
<mask id="path-5-inside-1_693_7617" fill="white">
<path d="M13.9995 6.50007C13.9462 6.50007 13.8929 6.4934 13.8395 6.4734C10.0729 5.22007 5.91953 5.22007 2.15286 6.4734C1.8862 6.56007 1.6062 6.42007 1.51953 6.16007C1.43953 5.8934 1.57953 5.6134 1.83953 5.52674C5.81286 4.20007 10.1862 4.20007 14.1529 5.52674C14.4129 5.6134 14.5595 5.90007 14.4662 6.16007C14.4062 6.36674 14.2062 6.50007 13.9995 6.50007Z"/>
</mask>
<path d="M13.9995 6.50007C13.9462 6.50007 13.8929 6.4934 13.8395 6.4734C10.0729 5.22007 5.91953 5.22007 2.15286 6.4734C1.8862 6.56007 1.6062 6.42007 1.51953 6.16007C1.43953 5.8934 1.57953 5.6134 1.83953 5.52674C5.81286 4.20007 10.1862 4.20007 14.1529 5.52674C14.4129 5.6134 14.5595 5.90007 14.4662 6.16007C14.4062 6.36674 14.2062 6.50007 13.9995 6.50007Z" fill="#292D32"/>
<path d="M13.8395 6.4734L14.1907 5.53708L14.1731 5.53048L14.1553 5.52455L13.8395 6.4734ZM2.15286 6.4734L2.46196 7.42446L2.46859 7.42226L2.15286 6.4734ZM1.51953 6.16007L0.561704 6.44742L0.566057 6.46193L0.570847 6.4763L1.51953 6.16007ZM1.83953 5.52674L2.15576 6.47542L2.15624 6.47526L1.83953 5.52674ZM14.1529 5.52674L13.8357 6.4751L13.8366 6.47542L14.1529 5.52674ZM14.4662 6.16007L13.525 5.82221L13.5145 5.85144L13.5059 5.88126L14.4662 6.16007ZM13.9995 5.50007C14.0308 5.50007 14.1029 5.50415 14.1907 5.53708L13.4884 7.40973C13.6829 7.48266 13.8616 7.50007 13.9995 7.50007V5.50007ZM14.1553 5.52455C10.1836 4.20302 5.80876 4.20302 1.83714 5.52455L2.46859 7.42226C6.0303 6.23712 9.9621 6.23712 13.5238 7.42226L14.1553 5.52455ZM1.84378 5.52237C2.08758 5.44313 2.3772 5.57081 2.46821 5.84384L0.570847 6.4763C0.83519 7.26933 1.68481 7.67701 2.46195 7.42444L1.84378 5.52237ZM2.47736 5.87272C2.5461 6.10185 2.42993 6.38403 2.15576 6.47542L1.5233 4.57805C0.729128 4.84278 0.332965 5.68496 0.561704 6.44742L2.47736 5.87272ZM2.15624 6.47526C5.92418 5.21717 10.075 5.21734 13.8357 6.4751L14.47 4.57837C10.2974 3.1828 5.70154 3.18297 1.52283 4.57821L2.15624 6.47526ZM13.8366 6.47542C13.585 6.39155 13.4214 6.11089 13.525 5.82221L15.4074 6.49794C15.6977 5.68925 15.2407 4.83526 14.4691 4.57805L13.8366 6.47542ZM13.5059 5.88126C13.5821 5.61865 13.8066 5.50007 13.9995 5.50007V7.50007C14.6058 7.50007 15.2303 7.11482 15.4265 6.43888L13.5059 5.88126Z" fill="#171515" mask="url(#path-5-inside-1_693_7617)"/>
</svg>
