<svg width="31" height="35" viewBox="0 0 31 35" fill="none" xmlns="http://www.w3.org/2000/svg">
<path d="M1.76018 0.637209C2.39429 0.55488 3.0373 0.695538 3.57912 1.0351L22.0528 11.5367L17.3775 16.2688L1.76018 0.637209ZM0.339124 2.05826C0.250033 2.36764 0.20694 2.68844 0.211229 3.01037V32.3693C0.20694 32.6912 0.250033 33.012 0.339124 33.3214L15.9707 17.6898L0.339124 2.05826ZM17.3918 19.1109L1.76018 34.7425C2.39459 34.8323 3.04014 34.691 3.57912 34.3446L22.0528 23.843L17.3918 19.1109ZM29.4991 15.7856L23.9002 12.6025L18.7844 17.6898L23.886 22.7914L29.4849 19.6083C31.3323 18.5567 31.3323 16.823 29.4849 15.7714L29.4991 15.7856Z" fill="#171515"/>
</svg>
