<svg width="25" height="24" viewBox="0 0 25 24" fill="none" xmlns="http://www.w3.org/2000/svg">
<path d="M11.8094 21.0495L11.8094 21.0495L11.8022 21.047C9.97224 20.4195 7.57073 18.9765 5.63174 16.8528C3.69727 14.7341 2.25 11.9692 2.25 8.68998C2.25 5.46406 4.8582 2.84998 8.06 2.84998C9.61753 2.84998 11.0695 3.45733 12.1449 4.54202L12.5 4.90011L12.8551 4.54202C13.9305 3.45733 15.3825 2.84998 16.94 2.84998C20.1413 2.84998 22.75 5.47354 22.75 8.68998C22.75 11.9743 21.3026 14.7392 19.3684 16.8565C17.4295 18.9788 15.028 20.4194 13.1978 21.047L13.1978 21.047L13.1906 21.0495C13.011 21.1142 12.7722 21.15 12.5 21.15C12.2278 21.15 11.989 21.1142 11.8094 21.0495ZM11.9682 20.5831L11.9719 20.5843C12.1379 20.6397 12.3437 20.655 12.505 20.655C12.6663 20.655 12.8721 20.6397 13.0381 20.5843L13.0381 20.5843L13.0424 20.5829C14.2588 20.1651 16.5443 18.9819 18.5332 17.0251C20.5283 15.0623 22.26 12.284 22.26 8.68998C22.26 5.74653 19.8788 3.34998 16.95 3.34998C15.2711 3.34998 13.7121 4.13547 12.708 5.4926L12.7075 5.49338C12.6781 5.53319 12.611 5.57498 12.51 5.57498C12.409 5.57498 12.3419 5.53319 12.3125 5.49338L12.3125 5.49337L12.31 5.48998C11.2866 4.12544 9.73908 3.34998 8.06 3.34998C5.13116 3.34998 2.75 5.74653 2.75 8.68998C2.75 12.2789 4.47909 15.0571 6.47286 17.0212C8.46037 18.9791 10.746 20.1651 11.9682 20.5831Z" fill="#171515" stroke="#171515"/>
</svg>
