<svg width="24" height="24" viewBox="0 0 24 24" fill="none" xmlns="http://www.w3.org/2000/svg">
<path d="M3.78267 7.24557L3.78268 7.24557L9.17253 3.04569C9.17258 3.04565 9.17263 3.04561 9.17267 3.04557C9.82008 2.54078 10.6736 2.29439 11.5054 2.27634C12.3374 2.25828 13.2026 2.46742 13.8769 2.94048L3.78267 7.24557ZM3.78267 7.24557L3.78036 7.24739C3.3487 7.58785 2.97237 8.11409 2.7052 8.65656C2.43834 9.19841 2.25 9.81818 2.25 10.37V17.78C2.25 19.9642 4.02198 21.75 6.21 21.75H17.79C19.9761 21.75 21.75 19.9761 21.75 17.79V10.51C21.75 9.92461 21.5446 9.27175 21.2496 8.70623C20.9553 8.14216 20.5383 7.60039 20.0547 7.26895L13.8772 2.9407L3.78267 7.24557ZM3.47697 6.85465L3.47732 6.85437L8.86697 2.65465C8.86707 2.65457 8.86718 2.65449 8.86728 2.65441C8.86729 2.6544 8.86731 2.65439 8.86733 2.65437C10.3134 1.52992 12.662 1.47512 14.1626 2.52913L14.1631 2.52947L20.3431 6.85947L20.344 6.86007C20.8581 7.21864 21.3396 7.80219 21.6931 8.47894C22.0465 9.15572 22.25 9.8839 22.25 10.51V17.79C22.25 20.2445 20.2532 22.25 17.79 22.25H6.21C3.74745 22.25 1.75 20.2451 1.75 17.78V10.37C1.75 9.78451 1.93347 9.09265 2.2538 8.44038C2.57405 7.78827 3.01069 7.21731 3.47697 6.85465Z" fill="#171515" stroke="#171515"/>
<path d="M12 18.75C11.59 18.75 11.25 18.41 11.25 18V15C11.25 14.59 11.59 14.25 12 14.25C12.41 14.25 12.75 14.59 12.75 15V18C12.75 18.41 12.41 18.75 12 18.75Z" fill="#171515"/>
</svg>
