<svg width="22" height="22" viewBox="0 0 22 22" fill="none" xmlns="http://www.w3.org/2000/svg">
<path d="M2.78267 6.24557L2.78268 6.24557L8.17253 2.04569C8.17258 2.04565 8.17263 2.04561 8.17267 2.04557C8.82008 1.54078 9.67358 1.29439 10.5054 1.27634C11.3374 1.25828 12.2026 1.46742 12.8769 1.94048L2.78267 6.24557ZM2.78267 6.24557L2.78036 6.24739C2.3487 6.58785 1.97237 7.11409 1.7052 7.65656C1.43834 8.19841 1.25 8.81818 1.25 9.36997V16.78C1.25 18.9642 3.02198 20.75 5.21 20.75H16.79C18.9761 20.75 20.75 18.9761 20.75 16.79V9.50997C20.75 8.92461 20.5446 8.27175 20.2496 7.70623C19.9553 7.14216 19.5383 6.60039 19.0547 6.26895L12.8772 1.9407L2.78267 6.24557ZM2.47697 5.85465L2.47732 5.85437L7.86697 1.65465C7.86707 1.65457 7.86718 1.65449 7.86728 1.65441C7.86729 1.6544 7.86731 1.65439 7.86733 1.65437C9.31342 0.529921 11.662 0.475123 13.1626 1.52913L13.1631 1.52947L19.3431 5.85947L19.344 5.86007C19.8581 6.21864 20.3396 6.80219 20.6931 7.47894C21.0465 8.15572 21.25 8.8839 21.25 9.50997V16.79C21.25 19.2445 19.2532 21.25 16.79 21.25H5.21C2.74745 21.25 0.75 19.2451 0.75 16.78V9.36997C0.75 8.78451 0.933466 8.09265 1.2538 7.44038C1.57405 6.78827 2.01069 6.21731 2.47697 5.85465Z" fill="#171515" stroke="#171515"/>
</svg>
