<svg width="34" height="34" viewBox="0 0 34 34" fill="none" xmlns="http://www.w3.org/2000/svg">
<path d="M14.778 17C14.778 15.7728 15.7726 14.7776 16.9999 14.7776C18.2272 14.7776 19.2224 15.7728 19.2224 17C19.2224 18.2273 18.2272 19.2224 16.9999 19.2224C15.7726 19.2224 14.778 18.2273 14.778 17ZM13.5766 17C13.5766 18.8907 15.1092 20.4233 16.9999 20.4233C18.8907 20.4233 20.4233 18.8907 20.4233 17C20.4233 15.1094 18.8907 13.5768 16.9999 13.5768C15.1092 13.5768 13.5766 15.1094 13.5766 17ZM19.7588 13.4411C19.7588 13.5993 19.8056 13.754 19.8935 13.8856C19.9813 14.0172 20.1062 14.1197 20.2524 14.1804C20.3986 14.241 20.5594 14.2569 20.7146 14.2261C20.8698 14.1953 21.0124 14.1191 21.1243 14.0073C21.2363 13.8954 21.3125 13.7529 21.3435 13.5978C21.3744 13.4426 21.3586 13.2817 21.2981 13.1355C21.2376 12.9893 21.1351 12.8643 21.0036 12.7764C20.8721 12.6884 20.7174 12.6414 20.5592 12.6414H20.5589C20.3468 12.6415 20.1434 12.7257 19.9934 12.8757C19.8434 13.0256 19.759 13.229 19.7588 13.4411V13.4411ZM14.3065 22.4265C13.6565 22.3969 13.3032 22.2887 13.0684 22.1972C12.7572 22.076 12.5351 21.9317 12.3016 21.6985C12.0681 21.4654 11.9235 21.2435 11.8029 20.9323C11.7114 20.6976 11.6031 20.3442 11.5735 19.6942C11.5412 18.9915 11.5348 18.7804 11.5348 17.0001C11.5348 15.2198 11.5417 15.0093 11.5735 14.306C11.6031 13.656 11.7122 13.3033 11.8029 13.0679C11.9241 12.7567 12.0684 12.5346 12.3016 12.3011C12.5347 12.0676 12.7566 11.9231 13.0684 11.8024C13.3031 11.7109 13.6565 11.6027 14.3065 11.5731C15.0092 11.5408 15.2203 11.5343 16.9999 11.5343C18.7795 11.5343 18.9908 11.5413 19.6942 11.5731C20.3442 11.6027 20.6969 11.7118 20.9323 11.8024C21.2435 11.9231 21.4656 12.0679 21.6991 12.3011C21.9326 12.5343 22.0766 12.7567 22.1978 13.0679C22.2893 13.3026 22.3976 13.656 22.4271 14.306C22.4595 15.0093 22.4659 15.2198 22.4659 17.0001C22.4659 18.7804 22.4595 18.9909 22.4271 19.6942C22.3975 20.3442 22.2887 20.6975 22.1978 20.9323C22.0766 21.2435 21.9323 21.4656 21.6991 21.6985C21.4659 21.9315 21.2435 22.076 20.9323 22.1972C20.6976 22.2887 20.3442 22.397 19.6942 22.4265C18.9914 22.4589 18.7803 22.4653 16.9999 22.4653C15.2195 22.4653 15.009 22.4589 14.3065 22.4265V22.4265ZM14.2513 10.3737C13.5416 10.4061 13.0566 10.5186 12.633 10.6834C12.1944 10.8536 11.8231 11.0819 11.452 11.4524C11.081 11.8228 10.8532 12.1947 10.683 12.6333C10.5182 13.0571 10.4057 13.5418 10.3734 14.2515C10.3405 14.9623 10.333 15.1896 10.333 17C10.333 18.8105 10.3405 19.0377 10.3734 19.7486C10.4057 20.4583 10.5182 20.943 10.683 21.3668C10.8532 21.8051 11.081 22.1774 11.452 22.5477C11.823 22.918 12.1944 23.146 12.633 23.3167C13.0574 23.4815 13.5416 23.594 14.2513 23.6263C14.9625 23.6587 15.1894 23.6667 16.9999 23.6667C18.8105 23.6667 19.0377 23.6592 19.7486 23.6263C20.4584 23.594 20.943 23.4815 21.3668 23.3167C21.8052 23.146 22.1768 22.9182 22.5478 22.5477C22.9189 22.1773 23.1462 21.8051 23.3168 21.3668C23.4816 20.943 23.5947 20.4583 23.6265 19.7486C23.6588 19.0372 23.6663 18.8105 23.6663 17C23.6663 15.1896 23.6588 14.9623 23.6265 14.2515C23.5942 13.5417 23.4816 13.0568 23.3168 12.6333C23.1462 12.195 22.9183 11.8234 22.5478 11.4524C22.1774 11.0813 21.8052 10.8536 21.3674 10.6834C20.943 10.5186 20.4583 10.4055 19.7491 10.3737C19.0383 10.3414 18.811 10.3334 17.0005 10.3334C15.1899 10.3334 14.9625 10.3409 14.2513 10.3737Z" fill="#999999"/>
<rect x="0.5" y="0.5" width="33" height="33" rx="16.5" stroke="#999999"/>
</svg>
