<svg width="144" height="40" viewBox="0 0 144 40" fill="none" xmlns="http://www.w3.org/2000/svg">
<g clip-path="url(#clip0_222_794)">
<path d="M25.2631 23.4859C25.2982 23.4859 25.3334 23.5212 25.3685 23.5212C25.5091 23.5212 25.6496 23.4155 25.7199 23.2747L26.5983 20.8099C26.6686 20.6338 26.5632 20.4226 26.3875 20.3521C26.2118 20.2817 26.001 20.3873 25.9307 20.5634L25.0523 23.0282C24.982 23.2395 25.0874 23.4155 25.2631 23.4859Z" fill="#0F58E6"/>
<path d="M24.4201 18.1691L22.1011 19.2606C21.9254 19.331 21.8551 19.5775 21.9254 19.7536C21.9956 19.8944 22.1011 19.9649 22.2416 19.9649C22.2767 19.9649 22.347 19.9649 22.3821 19.9296L24.7012 18.8381C24.8769 18.7677 24.9471 18.5212 24.8769 18.3451C24.8066 18.1691 24.5958 18.0987 24.4201 18.1691Z" fill="#0F58E6"/>
<path d="M25.2283 15.8449C25.2986 15.6689 25.1932 15.4576 25.0175 15.3872L22.5931 14.5069C22.4174 14.4365 22.2065 14.5421 22.1363 14.7182C22.066 14.8942 22.1714 15.1055 22.3471 15.1759L24.7715 16.0562C24.8067 16.0562 24.8418 16.0914 24.9121 16.0914C25.0526 16.0914 25.158 15.9858 25.2283 15.8449Z" fill="#0F58E6"/>
<path d="M27.0551 14.3662C27.0903 14.3662 27.1605 14.3662 27.1957 14.331C27.3713 14.2606 27.4416 14.0141 27.3713 13.8381L26.2821 11.4789C26.2118 11.3029 25.9659 11.2324 25.7902 11.3029C25.6496 11.3733 25.5794 11.6198 25.6496 11.7958L26.7389 14.155C26.8092 14.2606 26.9146 14.3662 27.0551 14.3662Z" fill="#0F58E6"/>
<path d="M29.8314 14.683C29.972 14.683 30.1125 14.5774 30.1828 14.4365L31.0612 11.9717C31.1315 11.7957 31.0261 11.5844 30.8504 11.514C30.6747 11.4436 30.4639 11.5492 30.3936 11.7253L29.5152 14.1901C29.4449 14.3661 29.5503 14.5774 29.726 14.6478C29.726 14.683 29.7611 14.683 29.8314 14.683Z" fill="#0F58E6"/>
<path d="M31.5179 16.9014C31.5531 16.9014 31.6234 16.9014 31.6585 16.8662L33.9775 15.7746C34.1532 15.7042 34.2235 15.4577 34.1532 15.2817C34.0829 15.1056 33.837 15.0352 33.6613 15.1056L31.3423 16.1971C31.1666 16.2676 31.0963 16.5141 31.1666 16.6901C31.272 16.7957 31.4125 16.9014 31.5179 16.9014Z" fill="#0F58E6"/>
<path d="M41.2859 6.90141H10.8222C9.76807 1.93662 6.88684 1.61972 6.64088 1.58451H4.42726C4.07589 0.739437 3.26774 0 2.2839 0C1.01897 0 0 1.02113 0 2.28873C0 3.55634 1.01897 4.61268 2.2839 4.61268C3.26774 4.61268 4.07589 3.83803 4.42726 2.99296H6.50034C6.57061 2.99296 8.50314 3.59155 9.24102 7.64085C10.1897 13.0282 12.6493 26.5493 12.6493 26.5493C12.6493 28.0634 13.5629 30.8099 16.936 30.8099H29.9367L29.4096 29.4366H16.9009C15.4603 29.4366 14.8278 28.3803 14.5467 27.6408C16.8306 27.5 23.085 27.0775 28.6015 26.6901L28.1096 24.9648C22.4876 25.3521 16.2684 25.7746 14.2656 25.9155C13.8088 23.6268 12.0871 13.9085 11.1384 8.62676H41.04C42.4103 8.62676 43.3941 9.75352 43.2184 11.1268L41.9535 21.4789C41.9535 21.5141 41.9184 21.7254 41.7778 22.007L43.3239 22.7817C43.605 22.1831 43.6752 21.7606 43.6752 21.6901L44.9753 11.0563C45.2213 8.76761 43.605 6.90141 41.2859 6.90141Z" fill="#0F58E6"/>
<path d="M37.8423 25.7042L40.7938 24.5422C41.0749 24.4366 41.2505 24.1901 41.2505 23.9084C41.2505 23.6268 41.11 23.3451 40.864 23.2042L28.4256 16.9014C28.1796 16.7606 27.8634 16.7958 27.6174 17.007C27.4066 17.1831 27.3012 17.5 27.4066 17.7817L31.623 31.4084C31.6933 31.6901 31.9744 31.9014 32.2555 31.9366C32.5366 31.9718 32.8177 31.7958 32.9582 31.5493L34.6448 28.3099L38.2639 33.1338C38.3693 33.2746 38.545 33.3803 38.7558 33.4155C38.791 33.4155 38.8261 33.4155 38.8612 33.4155C39.0018 33.4155 39.1775 33.3803 39.318 33.2746L41.5316 31.5493C41.6722 31.4437 41.7776 31.2676 41.8127 31.0563C41.8479 30.8451 41.7776 30.669 41.6722 30.493L37.8423 25.7042ZM38.9666 31.6549L35.1016 26.5141C34.961 26.338 34.7502 26.2324 34.5394 26.2324C34.5043 26.2324 34.5043 26.2324 34.4691 26.2324C34.2232 26.2676 34.0123 26.4084 33.8718 26.6197L32.4663 29.331L29.2688 19.0141L38.7207 23.8028L36.4016 24.7183C36.1908 24.7887 36.0151 25 35.98 25.2113C35.9097 25.4225 35.98 25.669 36.1206 25.8451L40.0559 30.8451L38.9666 31.6549Z" fill="#0F58E6"/>
<path d="M34.8558 33.8733C33.2043 33.8733 31.834 35.2465 31.834 36.9367C31.834 38.6268 33.2043 40.0001 34.8558 40.0001C36.5072 40.0001 37.8775 38.6268 37.8775 36.9367C37.8775 35.2465 36.5072 33.8733 34.8558 33.8733ZM34.8558 38.5212C33.9773 38.5212 33.2746 37.817 33.2746 36.9367C33.2746 36.0564 33.9773 35.3522 34.8558 35.3522C35.7342 35.3522 36.4369 36.0564 36.4369 36.9367C36.4369 37.7817 35.7342 38.5212 34.8558 38.5212Z" fill="#0F58E6"/>
<path d="M17.4632 33.8733C15.8117 33.8733 14.4414 35.2465 14.4414 36.9367C14.4414 38.6268 15.8117 40.0001 17.4632 40.0001C19.1146 40.0001 20.485 38.6268 20.485 36.9367C20.485 35.2465 19.1146 33.8733 17.4632 33.8733ZM17.4632 38.5212C16.5848 38.5212 15.882 37.817 15.882 36.9367C15.882 36.0564 16.5848 35.3522 17.4632 35.3522C18.3416 35.3522 19.0443 36.0564 19.0443 36.9367C19.0443 37.7817 18.3416 38.5212 17.4632 38.5212Z" fill="#0F58E6"/>
<path d="M61.0827 28.6923C56.504 28.6923 54 25.968 54 21.9053V12.0355H57.6963V21.4035C57.6963 23.8888 58.9126 25.251 61.0588 25.251C63.1812 25.251 64.3736 23.8888 64.3736 21.4035V12.0355H68.07V21.9053C68.07 25.968 65.5898 28.6923 61.0827 28.6923ZM72.911 16.146V17.3886C73.5072 16.6956 74.7711 15.9309 76.4642 15.9309C79.3259 15.9309 81.186 17.9144 81.186 20.8777V28.4055H77.8951V21.4513C77.8951 19.9935 77.0604 18.9898 75.6534 18.9898C74.0318 18.9898 72.9587 20.0174 72.9587 21.7141V28.4055H69.6439V16.146H72.911ZM85.8363 15.0944H82.5215V12.0355H85.8363V15.0944ZM85.8363 28.4055H82.5215V16.146H85.8363V28.4055ZM93.4436 28.7162C89.318 28.7162 87.0525 26.661 86.8378 23.2914H90.5342C90.6057 24.5341 91.3212 25.7768 93.539 25.7768C95.3991 25.7768 96.353 25.0359 96.353 24.0083C96.353 22.7417 94.7552 22.4072 92.8951 22.0009C90.2957 21.3796 87.124 20.6148 87.124 16.7195C87.124 13.8518 89.3418 11.7249 93.2528 11.7249C97.2353 11.7249 99.4293 13.8996 99.6677 17.1019H95.9475C95.876 15.7875 95.1606 14.736 93.1574 14.736C91.6789 14.736 90.7011 15.3334 90.7011 16.4088C90.7011 17.7949 92.3227 18.1773 94.1828 18.6074C96.8537 19.2049 100.049 19.874 100.049 23.5543C100.049 26.5415 97.7123 28.7162 93.4436 28.7162ZM106.083 16.146H109.087V19.1093H106.083V24.0322C106.083 25.1315 106.583 25.5617 107.704 25.5617H109.087V28.4055H107.466C104.223 28.4055 102.768 26.9478 102.768 24.1995V19.1093H101.003V16.146H102.768V12.9914H106.083V16.146ZM116.671 15.907C120.439 15.907 123.253 18.7269 123.253 22.3116C123.253 25.8724 120.439 28.6923 116.671 28.6923C112.903 28.6923 110.113 25.8963 110.113 22.3116C110.113 18.7508 112.927 15.907 116.671 15.907ZM116.671 18.9181C114.811 18.9181 113.38 20.352 113.38 22.3116C113.38 24.2712 114.739 25.729 116.599 25.729C118.459 25.729 119.962 24.2712 119.962 22.3116C119.962 20.352 118.531 18.9181 116.671 18.9181ZM127.665 28.4055H124.326V16.146H127.641V17.8188C128.452 16.6956 129.668 15.9787 131.194 15.9787V19.3244C128.762 19.3244 127.665 20.6865 127.665 22.8134V28.4055ZM143.571 25.7768C142.378 27.5691 140.494 28.6923 137.776 28.6923C133.865 28.6923 131.337 25.9441 131.337 22.3116C131.337 18.7747 133.96 15.907 137.8 15.907C141.663 15.907 144 18.5835 144 22.1443C144 22.6223 143.952 23.2436 143.952 23.3153H134.604C134.962 24.8687 136.13 25.8724 137.847 25.8724C139.326 25.8724 140.399 25.2271 141.091 24.2473L143.571 25.7768ZM137.776 18.6313C136.226 18.6313 135.153 19.4677 134.723 20.8538H140.661C140.304 19.3722 139.111 18.6313 137.776 18.6313Z" fill="#0F58E6"/>
</g>
<defs>
<clipPath id="clip0_222_794">
<rect width="144" height="40" fill="white"/>
</clipPath>
</defs>
</svg>
