<svg width="24" height="24" viewBox="0 0 24 24" fill="none" xmlns="http://www.w3.org/2000/svg">
<path d="M4.99988 21.3699C4.38725 21.3699 3.78602 21.1389 3.32344 20.6763C2.87706 20.23 2.62988 19.6371 2.62988 18.9999C2.62988 18.3627 2.87706 17.7698 3.32344 17.3234L16.3234 4.32344C17.2482 3.3987 18.7516 3.3987 19.6763 4.32344C20.1227 4.76981 20.3699 5.36269 20.3699 5.99988C20.3699 6.63707 20.1227 7.22995 19.6763 7.67633L6.67633 20.6763C6.21374 21.1389 5.61252 21.3699 4.99988 21.3699ZM16.6763 4.67633L17.0299 5.02988L16.6763 4.67633L3.67633 17.6763C3.32169 18.031 3.12988 18.4985 3.12988 18.9999C3.12988 19.5013 3.32169 19.9688 3.67633 20.3234C4.40159 21.0487 5.59817 21.0487 6.32344 20.3234L19.3234 7.32344C19.6781 6.9688 19.8699 6.50126 19.8699 5.99988C19.8699 5.49851 19.6781 5.03097 19.3234 4.67633C18.9542 4.30708 18.4745 4.12988 17.9999 4.12988C17.5252 4.12988 17.0456 4.30708 16.6763 4.67633Z" fill="#0F58E6" stroke="#0F58E6"/>
<path d="M18.0102 9.24018C17.9456 9.24018 17.885 9.21791 17.8337 9.16662L14.8337 6.16662C14.739 6.07188 14.739 5.90847 14.8337 5.81373C14.9285 5.71899 15.0919 5.71899 15.1866 5.81373L18.1866 8.81373C18.2814 8.90847 18.2814 9.07189 18.1866 9.16662C18.1354 9.21791 18.0747 9.24018 18.0102 9.24018Z" fill="#0F58E6" stroke="#0F58E6"/>
</svg>
