<svg width="24" height="24" viewBox="0 0 24 24" fill="none" xmlns="http://www.w3.org/2000/svg">
<path d="M8.83271 21.6537L8.83273 21.6537L8.83 21.65L7.63001 20.05L7.09001 19.33H7.19C7.48284 19.33 7.84557 19.5059 8.03255 19.7434L9.2268 21.3457C9.22722 21.3462 9.22764 21.3468 9.22805 21.3474C9.39167 21.5697 9.64852 21.775 9.99001 21.775C10.3312 21.775 10.5879 21.5701 10.7515 21.348C10.7521 21.3472 10.7526 21.3464 10.7532 21.3457L11.95 19.75L11.9512 19.7484C12.146 19.4865 12.4566 19.33 12.79 19.33H13.19C14.521 19.33 15.6083 19.0509 16.3926 18.3931C17.1835 17.7297 17.584 16.7512 17.6874 15.5318C17.7196 15.2707 17.73 15.0324 17.73 14.79V10.79C17.73 9.33172 17.4045 8.16491 16.6098 7.3702C15.8151 6.57549 14.6483 6.25 13.19 6.25H6.79001C6.54638 6.25 6.31124 6.26055 6.08483 6.28204C4.84415 6.38937 3.85512 6.79156 3.18732 7.5857C2.52625 8.37184 2.25 9.45996 2.25 10.79V14.79C2.25 16.5166 2.50688 17.7283 3.31563 18.4657C4.10092 19.1817 5.27948 19.3261 6.73001 19.3299V19.8299C5.06961 19.8243 3.8633 19.5851 3.06014 18.9068C2.26704 18.2369 1.75 17.033 1.75 14.79V10.79C1.75 8.79349 2.35481 7.61359 3.14033 6.9034C3.94083 6.17966 5.001 5.87806 6.02382 5.78809L6.03294 5.78728L6.04203 5.78615C6.25206 5.75989 6.50841 5.75 6.79001 5.75H13.19C14.9154 5.75 16.1545 6.20657 16.964 7.01606C17.7734 7.82555 18.23 9.06456 18.23 10.79V14.79C18.23 15.0707 18.2201 15.3224 18.1854 15.5567L18.1831 15.5723L18.1818 15.5879C18.0968 16.5939 17.798 17.6462 17.0758 18.4429C16.3668 19.2251 15.1866 19.83 13.19 19.83H12.79H12.5431L12.393 20.0261L11.1529 21.6461L11.1529 21.6461L11.1473 21.6537C10.8427 22.0676 10.4167 22.28 9.98999 22.28C9.56329 22.28 9.13731 22.0676 8.83271 21.6537Z" fill="#171515" stroke="#171515"/>
<path d="M9.99023 14.1899C9.43023 14.1899 8.99023 13.7399 8.99023 13.1899C8.99023 12.6399 9.44023 12.1899 9.99023 12.1899C10.5402 12.1899 10.9902 12.6399 10.9902 13.1899C10.9902 13.7399 10.5502 14.1899 9.99023 14.1899Z" fill="#171515"/>
<path d="M13.1899 14.1899C12.6299 14.1899 12.1899 13.7399 12.1899 13.1899C12.1899 12.6399 12.6399 12.1899 13.1899 12.1899C13.7399 12.1899 14.1899 12.6399 14.1899 13.1899C14.1899 13.7399 13.7399 14.1899 13.1899 14.1899Z" fill="#171515"/>
<path d="M6.7998 14.1899C6.2398 14.1899 5.7998 13.7399 5.7998 13.1899C5.7998 12.6399 6.2498 12.1899 6.7998 12.1899C7.3498 12.1899 7.7998 12.6399 7.7998 13.1899C7.7998 13.7399 7.3498 14.1899 6.7998 14.1899Z" fill="#171515"/>
<path d="M17.9401 16.29C17.7401 16.29 17.5401 16.21 17.4001 16.06C17.2401 15.9 17.1701 15.67 17.2001 15.45C17.2301 15.24 17.2401 15.02 17.2401 14.79V10.79C17.2401 8.00001 15.9901 6.75 13.2001 6.75H6.80012C6.57012 6.75 6.35015 6.76 6.14015 6.78C5.92015 6.81 5.69013 6.72999 5.53013 6.57999C5.37013 6.41999 5.28012 6.20001 5.30012 5.98001C5.48012 3.82001 6.59012 1.25 10.8001 1.25H17.2001C20.8201 1.25 22.7401 3.17001 22.7401 6.79001V10.79C22.7401 15 20.1701 16.1 18.0101 16.29C17.9801 16.29 17.9601 16.29 17.9401 16.29ZM6.92015 5.25H13.1901C16.8101 5.25 18.7301 7.17001 18.7301 10.79V14.66C20.4301 14.24 21.2301 12.99 21.2301 10.79V6.79001C21.2301 4.00001 19.9801 2.75 17.1901 2.75H10.7901C8.59014 2.75 7.35015 3.55 6.92015 5.25Z" fill="#171515"/>
</svg>
