<svg width="24" height="24" viewBox="0 0 24 24" fill="none" xmlns="http://www.w3.org/2000/svg">
<path d="M17 20.25H12C11.8661 20.25 11.75 20.1339 11.75 20C11.75 19.8661 11.8661 19.75 12 19.75H17C18.5035 19.75 19.7174 19.3847 20.5511 18.5511C21.3847 17.7174 21.75 16.5035 21.75 15V9C21.75 7.49651 21.3847 6.28256 20.5511 5.44895C19.7174 4.61533 18.5035 4.25 17 4.25H7C5.49651 4.25 4.28256 4.61533 3.44895 5.44895C2.61533 6.28256 2.25 7.49651 2.25 9V11C2.25 11.1339 2.13386 11.25 2 11.25C1.86614 11.25 1.75 11.1339 1.75 11V9C1.75 7.26991 2.24598 5.97362 3.1098 5.1098C3.97362 4.24598 5.26991 3.75 7 3.75H17C18.7301 3.75 20.0264 4.24598 20.8902 5.1098C21.754 5.97362 22.25 7.26991 22.25 9V15C22.25 16.7301 21.754 18.0264 20.8902 18.8902C20.0264 19.754 18.7301 20.25 17 20.25Z" fill="#171515" stroke="#171515"/>
<path d="M12 15.25C10.21 15.25 8.75 13.79 8.75 12C8.75 10.21 10.21 8.75 12 8.75C13.79 8.75 15.25 10.21 15.25 12C15.25 13.79 13.79 15.25 12 15.25ZM12 10.25C11.04 10.25 10.25 11.04 10.25 12C10.25 12.96 11.04 13.75 12 13.75C12.96 13.75 13.75 12.96 13.75 12C13.75 11.04 12.96 10.25 12 10.25Z" fill="#171515"/>
<path d="M18.5 15.25C18.09 15.25 17.75 14.91 17.75 14.5V9.5C17.75 9.09 18.09 8.75 18.5 8.75C18.91 8.75 19.25 9.09 19.25 9.5V14.5C19.25 14.91 18.91 15.25 18.5 15.25Z" fill="#171515"/>
<path d="M8.5 18.69C8.09 18.69 7.75 18.35 7.75 17.94V16.66C7.75 16.44 7.57003 16.25 7.34003 16.25H2C1.59 16.25 1.25 15.91 1.25 15.5C1.25 15.09 1.59 14.75 2 14.75H7.34003C8.39003 14.75 9.25 15.61 9.25 16.66V17.94C9.25 18.35 8.91 18.69 8.5 18.69Z" fill="#171515"/>
<path d="M3.21994 17.4697C3.02994 17.4697 2.83997 17.3997 2.68997 17.2497L1.46994 16.0298C1.17994 15.7398 1.17994 15.2597 1.46994 14.9697L2.68997 13.7497C2.97997 13.4597 3.45997 13.4597 3.74997 13.7497C4.03997 14.0397 4.03997 14.5197 3.74997 14.8097L3.05997 15.4997L3.74997 16.1897C4.03997 16.4797 4.03997 16.9597 3.74997 17.2497C3.59997 17.3997 3.40994 17.4697 3.21994 17.4697Z" fill="#171515"/>
<path d="M8.5 21.5298H3.15997C2.10997 21.5298 1.25 20.6698 1.25 19.6198V18.3398C1.25 17.9298 1.59 17.5898 2 17.5898C2.41 17.5898 2.75 17.9298 2.75 18.3398V19.6198C2.75 19.8398 2.92997 20.0298 3.15997 20.0298H8.5C8.91 20.0298 9.25 20.3698 9.25 20.7798C9.25 21.1898 8.91 21.5298 8.5 21.5298Z" fill="#171515"/>
<path d="M7.27976 22.75C7.08976 22.75 6.89973 22.68 6.74973 22.53C6.45973 22.24 6.45973 21.7599 6.74973 21.4699L7.43973 20.78L6.74973 20.09C6.45973 19.8 6.45973 19.32 6.74973 19.03C7.03973 18.74 7.51972 18.74 7.80972 19.03L9.02976 20.25C9.31976 20.54 9.31976 21.02 9.02976 21.31L7.80972 22.53C7.66972 22.68 7.46976 22.75 7.27976 22.75Z" fill="#171515"/>
</svg>
