<svg width="101" height="100" viewBox="0 0 101 100" fill="none" xmlns="http://www.w3.org/2000/svg">
<path d="M61.7556 91.82L61.7566 91.8207C64.4862 93.4503 66.6486 93.9583 68.3336 93.9583C70.2156 93.9583 71.5129 93.292 72.1681 92.7096L72.1875 92.6923L72.2087 92.6771C72.9537 92.1423 73.9035 91.1881 74.4886 89.5744C75.0741 87.9592 75.3088 85.6434 74.5548 82.3623L61.7556 91.82ZM61.7556 91.82L52.4222 86.2784L52.4204 86.2773C51.9542 86.0031 51.2766 85.8958 50.667 85.8958C50.0573 85.8958 49.3797 86.0031 48.9135 86.2773L48.9118 86.2784L39.579 91.8196L61.7556 91.82ZM72.3464 72.7789L74.5547 82.362L39.5783 91.82C36.6855 93.5312 34.405 94.0062 32.6868 93.9379C30.9694 93.8696 29.7721 93.2568 29.0469 92.7225C28.32 92.1869 27.3682 91.2208 26.7774 89.5996C26.1864 87.9782 25.9424 85.6624 26.6958 82.4043L26.696 82.4035L28.9043 72.7785L28.9051 72.7751C29.0151 72.28 28.9273 71.6427 28.767 71.0899C28.6057 70.5336 28.3379 69.9493 27.9917 69.5764L27.9854 69.5696L27.9789 69.5631L20.2288 61.8131C18.2037 59.788 17.2987 57.9227 16.9573 56.3717C16.6154 54.8185 16.8308 53.5447 17.1017 52.6933C17.3722 51.8433 17.9345 50.6857 19.1117 49.6208C20.2874 48.5573 22.1027 47.5624 24.9176 47.0762C24.9179 47.0761 24.9183 47.0761 24.9187 47.076L34.8745 45.4098L34.8789 45.409C35.3445 45.3269 35.8769 45.035 36.3091 44.7137C36.7361 44.3962 37.1673 43.9741 37.367 43.5514L42.8634 32.5583C42.8636 32.558 42.8637 32.5578 42.8638 32.5575C44.1814 29.9429 45.6931 28.4676 47.0743 27.6428C48.4572 26.817 49.7399 26.625 50.6253 26.625C51.5136 26.625 52.7961 26.8079 54.1773 27.6278C55.5571 28.447 57.0686 29.9213 58.3864 32.5569L63.8864 43.5569L63.8863 43.557L63.8925 43.5686C64.1104 43.9771 64.5438 44.3947 64.9728 44.7137C65.4001 45.0314 65.9215 45.3246 66.3665 45.4081L66.3665 45.4082L66.3761 45.4098L76.3344 47.0764L76.3353 47.0766C79.1487 47.5421 80.9628 48.5365 82.138 49.6044C83.315 50.674 83.8779 51.8419 84.1488 52.6933C84.4197 53.5447 84.6351 54.8185 84.2932 56.3717C83.9518 57.9227 83.0468 59.788 81.0217 61.8131L73.2718 69.5631C72.9124 69.9225 72.6432 70.5187 72.4833 71.0755C72.3232 71.6331 72.2356 72.2804 72.3456 72.7751L72.3464 72.7789ZM64.4116 87.3049L64.4118 87.305C65.676 88.055 66.706 88.4439 67.4793 88.6088C67.8651 88.691 68.1974 88.7198 68.469 88.7042C68.7085 88.6905 68.9869 88.6381 69.1877 88.4738C69.3791 88.3245 69.5063 88.0882 69.5926 87.8536C69.6871 87.5967 69.7581 87.2714 69.795 86.8802C69.8688 86.0967 69.8091 85.0109 69.4879 83.5975L69.4875 83.596L67.2792 74.0127L67.2787 74.0104C66.9689 72.6939 67.0618 71.1578 67.4857 69.6966C67.9096 68.2355 68.6534 66.8874 69.6038 65.9369L77.3539 58.1869C78.1562 57.3846 78.6647 56.6488 78.9505 56.0191C79.2285 55.4064 79.3215 54.8332 79.1866 54.3946C79.0502 53.9514 78.6453 53.5341 78.0632 53.1974C77.4659 52.8519 76.6229 52.555 75.4963 52.3813C75.4952 52.3811 75.4941 52.381 75.493 52.3808L65.5433 50.7155C65.5429 50.7155 65.5426 50.7154 65.5422 50.7153C63.0305 50.2832 60.3336 48.2985 59.1975 46.0264L53.6975 35.0264L53.6955 35.0225C53.1989 34.0508 52.6698 33.316 52.1643 32.8163C51.6807 32.3382 51.1415 32 50.6253 32C50.1152 32 49.5776 32.3205 49.0883 32.7987C48.5803 33.2951 48.0501 34.0323 47.553 35.0264L42.0531 46.0264C40.9171 48.2985 38.2201 50.2832 35.7083 50.7153C35.708 50.7154 35.7076 50.7155 35.7072 50.7155L25.7511 52.3818L25.7484 52.3823C24.6256 52.5766 23.7855 52.8729 23.1907 53.2112C22.6125 53.5399 22.202 53.9464 22.0641 54.3946C21.9291 54.8332 22.0222 55.4064 22.3002 56.0191C22.5859 56.6488 23.0944 57.3846 23.8968 58.1869L31.6467 65.9369C32.5964 66.8865 33.3405 68.2445 33.7647 69.7118C34.189 71.1794 34.2813 72.7148 33.9722 74.0088L33.9712 74.0131L31.7629 83.6382L31.7623 83.6408C31.4415 85.074 31.3818 86.1697 31.4556 86.9531C31.4924 87.3439 31.5635 87.6685 31.6594 87.9226C31.7441 88.1471 31.8768 88.3938 32.0919 88.5371C32.2914 88.6789 32.5565 88.732 32.8057 88.7459C33.0813 88.7613 33.4158 88.7329 33.8025 88.6504C34.5767 88.4853 35.5967 88.096 36.8403 87.3458C36.8408 87.3454 36.8414 87.3451 36.842 87.3447L46.1664 81.8083C47.5034 81.0626 49.0832 80.6667 50.667 80.6667C52.265 80.6667 53.8387 81.0272 55.0784 81.7633L64.4116 87.3049Z" fill="#999999" stroke="#999999"/>
<path d="M25.6665 40.1252C24.2343 40.1252 23.0415 38.9324 23.0415 37.5002V8.3335C23.0415 6.90131 24.2343 5.7085 25.6665 5.7085C27.0987 5.7085 28.2915 6.90131 28.2915 8.3335V37.5002C28.2915 38.9324 27.0987 40.1252 25.6665 40.1252Z" fill="#999999" stroke="#999999"/>
<path d="M75.6665 40.6252C73.9582 40.6252 72.5415 39.2085 72.5415 37.5002V8.3335C72.5415 6.62516 73.9582 5.2085 75.6665 5.2085C77.3748 5.2085 78.7915 6.62516 78.7915 8.3335V37.5002C78.7915 39.2085 77.3748 40.6252 75.6665 40.6252Z" fill="#999999"/>
<path d="M50.6665 19.7918C48.9582 19.7918 47.5415 18.3752 47.5415 16.6668V8.3335C47.5415 6.62516 48.9582 5.2085 50.6665 5.2085C52.3748 5.2085 53.7915 6.62516 53.7915 8.3335V16.6668C53.7915 18.3752 52.3748 19.7918 50.6665 19.7918Z" fill="#999999"/>
</svg>
