<svg width="24" height="24" viewBox="0 0 24 24" fill="none" xmlns="http://www.w3.org/2000/svg">
<path d="M11.42 18.7499H8.69C7.41285 18.7499 6.58222 18.4525 6.0648 17.9351C5.54738 17.4177 5.25 16.5871 5.25 15.3099V12.5799C5.25 11.3082 5.54716 10.4801 6.06446 9.9638C6.58197 9.44729 7.41285 9.1499 8.69 9.1499H11.42C12.6917 9.1499 13.5228 9.44706 14.0418 9.96505C14.5606 10.4828 14.86 11.3137 14.86 12.5899V15.319C14.8551 16.5904 14.5559 17.4192 14.038 17.936C13.5202 18.4528 12.6915 18.7499 11.42 18.7499ZM8.69 9.6499C7.73743 9.6499 6.94342 9.78688 6.4152 10.3151C5.88698 10.8433 5.75 11.6373 5.75 12.5899V15.3199C5.75 16.2725 5.88698 17.0665 6.4152 17.5947C6.94342 18.1229 7.73743 18.2599 8.69 18.2599H11.42C12.3726 18.2599 13.1666 18.1229 13.6948 17.5947C14.223 17.0665 14.36 16.2725 14.36 15.3199V12.5899C14.36 11.6373 14.223 10.8433 13.6948 10.3151C13.1666 9.78688 12.3726 9.6499 11.42 9.6499H8.69Z" fill="#171515" stroke="#171515"/>
<path d="M15.31 15.35H14.6C14.19 15.35 13.85 15.01 13.85 14.6V12.58C13.85 10.71 13.28 10.14 11.41 10.14H9.4C8.99 10.14 8.65 9.8 8.65 9.39V8.69C8.65 6.01 9.9 4.75 12.59 4.75H15.32C18 4.75 19.26 6 19.26 8.69V11.42C19.25 14.1 18 15.35 15.31 15.35ZM10.15 8.65H11.42C14.1 8.65 15.36 9.9 15.36 12.59V13.86C17.2 13.85 17.76 13.28 17.76 11.42V8.69C17.76 6.82 17.19 6.25 15.32 6.25H12.59C10.73 6.25 10.16 6.81 10.15 8.65Z" fill="#171515"/>
<path d="M15 22.7502C14.73 22.7502 14.48 22.6002 14.35 22.3702C14.22 22.1302 14.22 21.8502 14.36 21.6102L15.41 19.8602C15.62 19.5002 16.08 19.3902 16.44 19.6002C16.8 19.8102 16.91 20.2702 16.7 20.6302L16.43 21.0802C19.19 20.4302 21.26 17.9502 21.26 14.9902C21.26 14.5802 21.6 14.2402 22.01 14.2402C22.42 14.2402 22.76 14.5802 22.76 14.9902C22.75 19.2702 19.27 22.7502 15 22.7502Z" fill="#171515"/>
<path d="M2 9.75C1.59 9.75 1.25 9.41 1.25 9C1.25 4.73 4.73 1.25 9 1.25C9.27 1.25 9.52 1.4 9.65 1.63C9.78 1.87 9.78 2.15 9.64 2.39L8.59 4.14C8.38 4.49 7.92 4.61 7.56 4.39C7.21 4.18 7.09 3.72 7.31 3.36L7.58 2.91C4.81 3.56 2.75 6.04 2.75 9C2.75 9.41 2.41 9.75 2 9.75Z" fill="#171515"/>
</svg>
