<svg width="24" height="24" viewBox="0 0 24 24" fill="none" xmlns="http://www.w3.org/2000/svg">
<path d="M5.74877 3.26574L5.85151 3.63H6.23H18.72C19.593 3.63 20.3899 3.97363 20.974 4.5907C21.5505 5.22013 21.8403 6.03302 21.7716 6.90052L21.7713 6.90409L21.2313 14.4041L21.2313 14.4041L21.2309 14.41C21.1371 15.9712 19.7603 17.25 18.19 17.25H7.53999C6.69094 17.25 5.87427 16.8894 5.29836 16.2619C4.72195 15.6339 4.42981 14.791 4.49832 13.9409C4.49834 13.9407 4.49836 13.9405 4.49838 13.9403L5.32803 3.98452C5.37152 3.52383 5.20598 3.08787 4.90924 2.76287C4.59888 2.42295 4.17192 2.25 3.73 2.25H2C1.86614 2.25 1.75 2.13386 1.75 2C1.75 1.86614 1.86614 1.75 2 1.75H3.74001C4.32648 1.75 4.88333 1.99862 5.2806 2.42698C5.50164 2.67329 5.66125 2.95542 5.74877 3.26574ZM5.78 4.59928L5.00185 13.977C5.00182 13.9773 5.0018 13.9776 5.00177 13.9779C4.93988 14.6987 5.17813 15.385 5.65964 15.9159C6.14804 16.4544 6.82441 16.74 7.53999 16.74H18.19C19.4948 16.74 20.6488 15.6553 20.7485 14.3584L20.7487 14.3559L21.2887 6.85591L21.2888 6.85383C21.3375 6.13602 21.1067 5.43648 20.6144 4.9176C20.1263 4.39317 19.4525 4.10999 18.73 4.10999H6.28H5.78V4.59928Z" fill="#fafafa" stroke="#fafafa"/>
<path d="M16.25 22.75C15.15 22.75 14.25 21.85 14.25 20.75C14.25 19.65 15.15 18.75 16.25 18.75C17.35 18.75 18.25 19.65 18.25 20.75C18.25 21.85 17.35 22.75 16.25 22.75ZM16.25 20.25C15.97 20.25 15.75 20.47 15.75 20.75C15.75 21.03 15.97 21.25 16.25 21.25C16.53 21.25 16.75 21.03 16.75 20.75C16.75 20.47 16.53 20.25 16.25 20.25Z" fill="#fafafa"/>
<path d="M8.25 22.75C7.15 22.75 6.25 21.85 6.25 20.75C6.25 19.65 7.15 18.75 8.25 18.75C9.35 18.75 10.25 19.65 10.25 20.75C10.25 21.85 9.35 22.75 8.25 22.75ZM8.25 20.25C7.97 20.25 7.75 20.47 7.75 20.75C7.75 21.03 7.97 21.25 8.25 21.25C8.53 21.25 8.75 21.03 8.75 20.75C8.75 20.47 8.53 20.25 8.25 20.25Z" fill="#fafafa"/>
<path d="M21 8.75H9C8.59 8.75 8.25 8.41 8.25 8C8.25 7.59 8.59 7.25 9 7.25H21C21.41 7.25 21.75 7.59 21.75 8C21.75 8.41 21.41 8.75 21 8.75Z" fill="#fafafa"/>
</svg>
