<svg width="22" height="22" viewBox="0 0 22 22" fill="none" xmlns="http://www.w3.org/2000/svg">
<path d="M12.73 2.51014L14.49 6.03014C14.73 6.52014 15.37 6.99014 15.91 7.08014L19.1 7.61014C21.14 7.95014 21.62 9.43014 20.15 10.8901L17.67 13.3701C17.25 13.7901 17.02 14.6001 17.15 15.1801L17.86 18.2501C18.42 20.6801 17.13 21.6201 14.98 20.3501L11.99 18.5801C11.45 18.2601 10.56 18.2601 10.01 18.5801L7.02003 20.3501C4.88003 21.6201 3.58003 20.6701 4.14003 18.2501L4.85003 15.1801C4.98003 14.6001 4.75003 13.7901 4.33003 13.3701L1.85003 10.8901C0.390031 9.43014 0.860031 7.95014 2.90003 7.61014L6.09003 7.08014C6.62003 6.99014 7.26003 6.52014 7.50003 6.03014L9.26003 2.51014C10.22 0.600137 11.78 0.600137 12.73 2.51014Z" fill="#0F58E6" stroke="#0F58E6" stroke-width="1.5" stroke-linecap="round" stroke-linejoin="round"/>
</svg>
