<svg width="36" height="36" viewBox="0 0 36 36" fill="none" xmlns="http://www.w3.org/2000/svg">
<path d="M11.9624 17.7771C15.7205 16.1966 18.2265 15.1546 19.4804 14.6511C23.0604 13.2137 23.8043 12.964 24.2892 12.9556C24.3958 12.9539 24.6343 12.9794 24.7887 13.1004C24.9192 13.2026 24.955 13.3406 24.9722 13.4374C24.9894 13.5343 25.0108 13.7549 24.9938 13.9273C24.7998 15.8951 23.9603 20.6703 23.5332 22.8742C23.3525 23.8067 22.9967 24.1194 22.6522 24.15C21.9036 24.2165 21.3351 23.6724 20.6101 23.2136C19.4755 22.4956 18.8345 22.0487 17.7332 21.3481C16.4604 20.5385 17.2855 20.0935 18.0108 19.3662C18.2006 19.1759 21.4991 16.2797 21.5629 16.017C21.5709 15.9841 21.5783 15.8616 21.503 15.797C21.4276 15.7323 21.3163 15.7544 21.236 15.772C21.1222 15.7969 19.3097 16.9534 15.7984 19.2414C15.2839 19.5825 14.8179 19.7486 14.4004 19.7399C13.9401 19.7303 13.0547 19.4887 12.3965 19.2822C11.5892 19.0288 10.9475 18.8949 11.0034 18.4647C11.0325 18.2406 11.3522 18.0114 11.9624 17.7771Z" fill="#999999"/>
<rect x="1" y="1.45557" width="34" height="34" rx="17" stroke="#999999"/>
</svg>
