<svg width="9" height="18" viewBox="0 0 9 18" fill="none" xmlns="http://www.w3.org/2000/svg">
<path d="M7.60951 10.5731L7.60949 10.573L7.60606 10.5765L1.09337 17.0892C1.02712 17.1489 0.95821 17.17 0.909609 17.17C0.845061 17.17 0.784453 17.1478 0.733162 17.0965C0.638425 17.0017 0.638425 16.8383 0.733163 16.7436L7.25316 10.2236C7.92842 9.54831 7.92842 8.45173 7.25316 7.77647L0.733163 1.25647C0.638425 1.16173 0.638425 0.998311 0.733163 0.903573C0.827901 0.808835 0.991318 0.808835 1.08606 0.903573L7.60606 7.42357C8.02308 7.8406 8.25961 8.40374 8.25961 9.00002C8.25961 9.60051 8.03027 10.1604 7.60951 10.5731Z" fill="#FAFAFA" stroke="#FAFAFA"/>
</svg>
